<?xml version="1.0" encoding="UTF-8"?>
<svg width="57px" height="45px" viewBox="0 0 57 45" version="1.1" xmlns="http://www.w3.org/2000/svg" xmlns:xlink="http://www.w3.org/1999/xlink">
    <!-- Generator: Sketch 50.2 (55047) - http://www.bohemiancoding.com/sketch -->
    <title>01 copy</title>
    <desc>Created with Sketch.</desc>
    <defs></defs>
    <g id="Page-1" stroke="none" stroke-width="1" fill="none" fill-rule="evenodd">
        <g id="Mobile-VER2" transform="translate(-235.000000, -706.000000)" fill="#EA6428">
            <path d="M235.36,728.76 C235.36,725.399983 235.629997,722.530012 236.17,720.15 C236.710003,717.769988 237.419996,715.770008 238.3,714.15 C239.180004,712.529992 240.169995,711.230005 241.27,710.25 C242.370006,709.269995 243.489994,708.530003 244.63,708.03 C245.770006,707.529998 246.869995,707.200001 247.93,707.04 C248.990005,706.879999 249.919996,706.8 250.72,706.8 C251.520004,706.8 252.449995,706.879999 253.51,707.04 C254.570005,707.200001 255.669994,707.529998 256.81,708.03 C257.950006,708.530003 259.069995,709.269995 260.17,710.25 C261.270006,711.230005 262.259996,712.529992 263.14,714.15 C264.020004,715.770008 264.729997,717.769988 265.27,720.15 C265.810003,722.530012 266.08,725.399983 266.08,728.76 C266.08,732.120017 265.810003,734.989988 265.27,737.37 C264.729997,739.750012 264.020004,741.749992 263.14,743.37 C262.259996,744.990008 261.270006,746.289995 260.17,747.27 C259.069995,748.250005 257.950006,748.989997 256.81,749.49 C255.669994,749.990002 254.570005,750.319999 253.51,750.48 C252.449995,750.640001 251.520004,750.72 250.72,750.72 C249.919996,750.72 248.990005,750.640001 247.93,750.48 C246.869995,750.319999 245.770006,749.990002 244.63,749.49 C243.489994,748.989997 242.370006,748.250005 241.27,747.27 C240.169995,746.289995 239.180004,744.990008 238.3,743.37 C237.419996,741.749992 236.710003,739.750012 236.17,737.37 C235.629997,734.989988 235.36,732.120017 235.36,728.76 Z M242.56,728.76 C242.56,730.080007 242.649999,731.609991 242.83,733.35 C243.010001,735.090009 243.379997,736.739992 243.94,738.3 C244.500003,739.860008 245.319995,741.179995 246.4,742.26 C247.480005,743.340005 248.919991,743.88 250.72,743.88 C252.520009,743.88 253.959995,743.340005 255.04,742.26 C256.120005,741.179995 256.939997,739.860008 257.5,738.3 C258.060003,736.739992 258.429999,735.090009 258.61,733.35 C258.790001,731.609991 258.88,730.080007 258.88,728.76 C258.88,727.439993 258.790001,725.910009 258.61,724.17 C258.429999,722.429991 258.060003,720.780008 257.5,719.22 C256.939997,717.659992 256.120005,716.340005 255.04,715.26 C253.959995,714.179995 252.520009,713.64 250.72,713.64 C248.919991,713.64 247.480005,714.179995 246.4,715.26 C245.319995,716.340005 244.500003,717.659992 243.94,719.22 C243.379997,720.780008 243.010001,722.429991 242.83,724.17 C242.649999,725.910009 242.56,727.439993 242.56,728.76 Z M284.56,715.8 L276.58,723.18 L272.38,718.2 L285.22,707.52 L291.76,707.52 L291.76,750 L284.56,750 L284.56,715.8 Z" id="01-copy"></path>
        </g>
    </g>
</svg>