<?xml version="1.0" encoding="UTF-8"?>
<svg width="152px" height="118px" viewBox="0 0 152 118" version="1.1" xmlns="http://www.w3.org/2000/svg" xmlns:xlink="http://www.w3.org/1999/xlink">
    <!-- Generator: Sketch 50.2 (55047) - http://www.bohemiancoding.com/sketch -->
    <title>01</title>
    <desc>Created with Sketch.</desc>
    <defs></defs>
    <g id="Page-1" stroke="none" stroke-width="1" fill="none" fill-rule="evenodd">
        <g id="WEB-TOP-VER2" transform="translate(-100.000000, -1366.000000)" fill="#EA6428">
            <path d="M100.96,1425.36 C100.96,1416.39996 101.679993,1408.7467 103.12,1402.4 C104.560007,1396.0533 106.453322,1390.72002 108.8,1386.4 C111.146678,1382.07998 113.786652,1378.61335 116.72,1376 C119.653348,1373.38665 122.639985,1371.41334 125.68,1370.08 C128.720015,1368.74666 131.653319,1367.86667 134.48,1367.44 C137.306681,1367.01333 139.786656,1366.8 141.92,1366.8 C144.053344,1366.8 146.533319,1367.01333 149.36,1367.44 C152.186681,1367.86667 155.119985,1368.74666 158.16,1370.08 C161.200015,1371.41334 164.186652,1373.38665 167.12,1376 C170.053348,1378.61335 172.693322,1382.07998 175.04,1386.4 C177.386678,1390.72002 179.279993,1396.0533 180.72,1402.4 C182.160007,1408.7467 182.88,1416.39996 182.88,1425.36 C182.88,1434.32004 182.160007,1441.9733 180.72,1448.32 C179.279993,1454.6667 177.386678,1459.99998 175.04,1464.32 C172.693322,1468.64002 170.053348,1472.10665 167.12,1474.72 C164.186652,1477.33335 161.200015,1479.30666 158.16,1480.64 C155.119985,1481.97334 152.186681,1482.85333 149.36,1483.28 C146.533319,1483.70667 144.053344,1483.92 141.92,1483.92 C139.786656,1483.92 137.306681,1483.70667 134.48,1483.28 C131.653319,1482.85333 128.720015,1481.97334 125.68,1480.64 C122.639985,1479.30666 119.653348,1477.33335 116.72,1474.72 C113.786652,1472.10665 111.146678,1468.64002 108.8,1464.32 C106.453322,1459.99998 104.560007,1454.6667 103.12,1448.32 C101.679993,1441.9733 100.96,1434.32004 100.96,1425.36 Z M120.16,1425.36 C120.16,1428.88002 120.399998,1432.95998 120.88,1437.6 C121.360002,1442.24002 122.346659,1446.63998 123.84,1450.8 C125.333341,1454.96002 127.519986,1458.47999 130.4,1461.36 C133.280014,1464.24001 137.119976,1465.68 141.92,1465.68 C146.720024,1465.68 150.559986,1464.24001 153.44,1461.36 C156.320014,1458.47999 158.506659,1454.96002 160,1450.8 C161.493341,1446.63998 162.479998,1442.24002 162.96,1437.6 C163.440002,1432.95998 163.68,1428.88002 163.68,1425.36 C163.68,1421.83998 163.440002,1417.76002 162.96,1413.12 C162.479998,1408.47998 161.493341,1404.08002 160,1399.92 C158.506659,1395.75998 156.320014,1392.24001 153.44,1389.36 C150.559986,1386.47999 146.720024,1385.04 141.92,1385.04 C137.119976,1385.04 133.280014,1386.47999 130.4,1389.36 C127.519986,1392.24001 125.333341,1395.75998 123.84,1399.92 C122.346659,1404.08002 121.360002,1408.47998 120.88,1413.12 C120.399998,1417.76002 120.16,1421.83998 120.16,1425.36 Z M232.16,1390.8 L210.88,1410.48 L199.68,1397.2 L233.92,1368.72 L251.36,1368.72 L251.36,1482 L232.16,1482 L232.16,1390.8 Z" id="01"></path>
        </g>
    </g>
</svg>