<?xml version="1.0" encoding="UTF-8"?>
<svg width="66px" height="45px" viewBox="0 0 66 45" version="1.1" xmlns="http://www.w3.org/2000/svg" xmlns:xlink="http://www.w3.org/1999/xlink">
    <!-- Generator: Sketch 50.2 (55047) - http://www.bohemiancoding.com/sketch -->
    <title>02</title>
    <desc>Created with Sketch.</desc>
    <defs></defs>
    <g id="Page-1" stroke="none" stroke-width="1" fill="none" fill-rule="evenodd">
        <g id="Mobile-VER2" transform="translate(-235.000000, -1308.000000)" fill="#EA6428">
            <path d="M235.36,1330.76 C235.36,1327.39998 235.629997,1324.53001 236.17,1322.15 C236.710003,1319.76999 237.419996,1317.77001 238.3,1316.15 C239.180004,1314.52999 240.169995,1313.23 241.27,1312.25 C242.370006,1311.27 243.489994,1310.53 244.63,1310.03 C245.770006,1309.53 246.869995,1309.2 247.93,1309.04 C248.990005,1308.88 249.919996,1308.8 250.72,1308.8 C251.520004,1308.8 252.449995,1308.88 253.51,1309.04 C254.570005,1309.2 255.669994,1309.53 256.81,1310.03 C257.950006,1310.53 259.069995,1311.27 260.17,1312.25 C261.270006,1313.23 262.259996,1314.52999 263.14,1316.15 C264.020004,1317.77001 264.729997,1319.76999 265.27,1322.15 C265.810003,1324.53001 266.08,1327.39998 266.08,1330.76 C266.08,1334.12002 265.810003,1336.98999 265.27,1339.37 C264.729997,1341.75001 264.020004,1343.74999 263.14,1345.37 C262.259996,1346.99001 261.270006,1348.29 260.17,1349.27 C259.069995,1350.25 257.950006,1350.99 256.81,1351.49 C255.669994,1351.99 254.570005,1352.32 253.51,1352.48 C252.449995,1352.64 251.520004,1352.72 250.72,1352.72 C249.919996,1352.72 248.990005,1352.64 247.93,1352.48 C246.869995,1352.32 245.770006,1351.99 244.63,1351.49 C243.489994,1350.99 242.370006,1350.25 241.27,1349.27 C240.169995,1348.29 239.180004,1346.99001 238.3,1345.37 C237.419996,1343.74999 236.710003,1341.75001 236.17,1339.37 C235.629997,1336.98999 235.36,1334.12002 235.36,1330.76 Z M242.56,1330.76 C242.56,1332.08001 242.649999,1333.60999 242.83,1335.35 C243.010001,1337.09001 243.379997,1338.73999 243.94,1340.3 C244.500003,1341.86001 245.319995,1343.17999 246.4,1344.26 C247.480005,1345.34001 248.919991,1345.88 250.72,1345.88 C252.520009,1345.88 253.959995,1345.34001 255.04,1344.26 C256.120005,1343.17999 256.939997,1341.86001 257.5,1340.3 C258.060003,1338.73999 258.429999,1337.09001 258.61,1335.35 C258.790001,1333.60999 258.88,1332.08001 258.88,1330.76 C258.88,1329.43999 258.790001,1327.91001 258.61,1326.17 C258.429999,1324.42999 258.060003,1322.78001 257.5,1321.22 C256.939997,1319.65999 256.120005,1318.34001 255.04,1317.26 C253.959995,1316.17999 252.520009,1315.64 250.72,1315.64 C248.919991,1315.64 247.480005,1316.17999 246.4,1317.26 C245.319995,1318.34001 244.500003,1319.65999 243.94,1321.22 C243.379997,1322.78001 243.010001,1324.42999 242.83,1326.17 C242.649999,1327.91001 242.56,1329.43999 242.56,1330.76 Z M272.02,1344.38 L288.52,1328.42 C289.000002,1327.94 289.499997,1327.43 290.02,1326.89 C290.540003,1326.35 291.009998,1325.78 291.43,1325.18 C291.850002,1324.58 292.199999,1323.95 292.48,1323.29 C292.760001,1322.63 292.9,1321.94 292.9,1321.22 C292.9,1320.34 292.730002,1319.56 292.39,1318.88 C292.049998,1318.2 291.600003,1317.62 291.04,1317.14 C290.479997,1316.66 289.830004,1316.29 289.09,1316.03 C288.349996,1315.77 287.560004,1315.64 286.72,1315.64 C284.919991,1315.64 283.440006,1316.15999 282.28,1317.2 C281.119994,1318.24001 280.420001,1319.63999 280.18,1321.4 L272.62,1320.8 C272.780001,1318.83999 273.249996,1317.11001 274.03,1315.61 C274.810004,1314.10999 275.819994,1312.86001 277.06,1311.86 C278.300006,1310.86 279.739992,1310.1 281.38,1309.58 C283.020008,1309.06 284.79999,1308.8 286.72,1308.8 C288.64001,1308.8 290.429992,1309.05 292.09,1309.55 C293.750008,1310.05 295.199994,1310.79 296.44,1311.77 C297.680006,1312.75 298.659996,1313.99999 299.38,1315.52 C300.100004,1317.04001 300.46,1318.81999 300.46,1320.86 C300.46,1323.54001 299.850006,1325.84999 298.63,1327.79 C297.409994,1329.73001 295.84001,1331.57999 293.92,1333.34 L280.78,1345.52 L300.46,1345.52 L300.46,1352 L272.02,1352 L272.02,1344.38 Z" id="02"></path>
        </g>
    </g>
</svg>