<?xml version="1.0" encoding="UTF-8"?>
<svg width="175px" height="118px" viewBox="0 0 175 118" version="1.1" xmlns="http://www.w3.org/2000/svg" xmlns:xlink="http://www.w3.org/1999/xlink">
    <!-- Generator: Sketch 50.2 (55047) - http://www.bohemiancoding.com/sketch -->
    <title>02</title>
    <desc>Created with Sketch.</desc>
    <defs></defs>
    <g id="Page-1" stroke="none" stroke-width="1" fill="none" fill-rule="evenodd">
        <g id="WEB-TOP-VER2" transform="translate(-1166.000000, -2055.000000)" fill="#EA6428">
            <path d="M1166.96,2114.36 C1166.96,2105.39996 1167.67999,2097.7467 1169.12,2091.4 C1170.56001,2085.0533 1172.45332,2079.72002 1174.8,2075.4 C1177.14668,2071.07998 1179.78665,2067.61335 1182.72,2065 C1185.65335,2062.38665 1188.63998,2060.41334 1191.68,2059.08 C1194.72002,2057.74666 1197.65332,2056.86667 1200.48,2056.44 C1203.30668,2056.01333 1205.78666,2055.8 1207.92,2055.8 C1210.05334,2055.8 1212.53332,2056.01333 1215.36,2056.44 C1218.18668,2056.86667 1221.11998,2057.74666 1224.16,2059.08 C1227.20002,2060.41334 1230.18665,2062.38665 1233.12,2065 C1236.05335,2067.61335 1238.69332,2071.07998 1241.04,2075.4 C1243.38668,2079.72002 1245.27999,2085.0533 1246.72,2091.4 C1248.16001,2097.7467 1248.88,2105.39996 1248.88,2114.36 C1248.88,2123.32004 1248.16001,2130.9733 1246.72,2137.32 C1245.27999,2143.6667 1243.38668,2148.99998 1241.04,2153.32 C1238.69332,2157.64002 1236.05335,2161.10665 1233.12,2163.72 C1230.18665,2166.33335 1227.20002,2168.30666 1224.16,2169.64 C1221.11998,2170.97334 1218.18668,2171.85333 1215.36,2172.28 C1212.53332,2172.70667 1210.05334,2172.92 1207.92,2172.92 C1205.78666,2172.92 1203.30668,2172.70667 1200.48,2172.28 C1197.65332,2171.85333 1194.72002,2170.97334 1191.68,2169.64 C1188.63998,2168.30666 1185.65335,2166.33335 1182.72,2163.72 C1179.78665,2161.10665 1177.14668,2157.64002 1174.8,2153.32 C1172.45332,2148.99998 1170.56001,2143.6667 1169.12,2137.32 C1167.67999,2130.9733 1166.96,2123.32004 1166.96,2114.36 Z M1186.16,2114.36 C1186.16,2117.88002 1186.4,2121.95998 1186.88,2126.6 C1187.36,2131.24002 1188.34666,2135.63998 1189.84,2139.8 C1191.33334,2143.96002 1193.51999,2147.47999 1196.4,2150.36 C1199.28001,2153.24001 1203.11998,2154.68 1207.92,2154.68 C1212.72002,2154.68 1216.55999,2153.24001 1219.44,2150.36 C1222.32001,2147.47999 1224.50666,2143.96002 1226,2139.8 C1227.49334,2135.63998 1228.48,2131.24002 1228.96,2126.6 C1229.44,2121.95998 1229.68,2117.88002 1229.68,2114.36 C1229.68,2110.83998 1229.44,2106.76002 1228.96,2102.12 C1228.48,2097.47998 1227.49334,2093.08002 1226,2088.92 C1224.50666,2084.75998 1222.32001,2081.24001 1219.44,2078.36 C1216.55999,2075.47999 1212.72002,2074.04 1207.92,2074.04 C1203.11998,2074.04 1199.28001,2075.47999 1196.4,2078.36 C1193.51999,2081.24001 1191.33334,2084.75998 1189.84,2088.92 C1188.34666,2093.08002 1187.36,2097.47998 1186.88,2102.12 C1186.4,2106.76002 1186.16,2110.83998 1186.16,2114.36 Z M1264.72,2150.68 L1308.72,2108.12 C1310.00001,2106.83999 1311.33333,2105.48001 1312.72,2104.04 C1314.10667,2102.59999 1315.35999,2101.08001 1316.48,2099.48 C1317.60001,2097.87999 1318.53333,2096.20001 1319.28,2094.44 C1320.02667,2092.67999 1320.4,2090.84001 1320.4,2088.92 C1320.4,2086.57332 1319.94667,2084.49334 1319.04,2082.68 C1318.13333,2080.86666 1316.93334,2079.32001 1315.44,2078.04 C1313.94666,2076.75999 1312.21334,2075.77334 1310.24,2075.08 C1308.26666,2074.38666 1306.16001,2074.04 1303.92,2074.04 C1299.11998,2074.04 1295.17335,2075.42665 1292.08,2078.2 C1288.98665,2080.97335 1287.12,2084.70664 1286.48,2089.4 L1266.32,2087.8 C1266.74667,2082.57331 1267.99999,2077.96002 1270.08,2073.96 C1272.16001,2069.95998 1274.85332,2066.62668 1278.16,2063.96 C1281.46668,2061.29332 1285.30664,2059.26667 1289.68,2057.88 C1294.05336,2056.49333 1298.79997,2055.8 1303.92,2055.8 C1309.04003,2055.8 1313.81331,2056.46666 1318.24,2057.8 C1322.66669,2059.13334 1326.53332,2061.10665 1329.84,2063.72 C1333.14668,2066.33335 1335.75999,2069.66665 1337.68,2073.72 C1339.60001,2077.77335 1340.56,2082.51997 1340.56,2087.96 C1340.56,2095.1067 1338.93335,2101.26664 1335.68,2106.44 C1332.42665,2111.61336 1328.24003,2116.54664 1323.12,2121.24 L1288.08,2153.72 L1340.56,2153.72 L1340.56,2171 L1264.72,2171 L1264.72,2150.68 Z" id="02"></path>
        </g>
    </g>
</svg>