<?xml version="1.0" encoding="UTF-8"?>
<svg width="66px" height="45px" viewBox="0 0 66 45" version="1.1" xmlns="http://www.w3.org/2000/svg" xmlns:xlink="http://www.w3.org/1999/xlink">
    <!-- Generator: Sketch 50.2 (55047) - http://www.bohemiancoding.com/sketch -->
    <title>03</title>
    <desc>Created with Sketch.</desc>
    <defs></defs>
    <g id="Page-1" stroke="none" stroke-width="1" fill="none" fill-rule="evenodd">
        <g id="Mobile-VER2" transform="translate(-235.000000, -1975.000000)" fill="#EA6428">
            <path d="M235.36,1997.76 C235.36,1994.39998 235.629997,1991.53001 236.17,1989.15 C236.710003,1986.76999 237.419996,1984.77001 238.3,1983.15 C239.180004,1981.52999 240.169995,1980.23 241.27,1979.25 C242.370006,1978.27 243.489994,1977.53 244.63,1977.03 C245.770006,1976.53 246.869995,1976.2 247.93,1976.04 C248.990005,1975.88 249.919996,1975.8 250.72,1975.8 C251.520004,1975.8 252.449995,1975.88 253.51,1976.04 C254.570005,1976.2 255.669994,1976.53 256.81,1977.03 C257.950006,1977.53 259.069995,1978.27 260.17,1979.25 C261.270006,1980.23 262.259996,1981.52999 263.14,1983.15 C264.020004,1984.77001 264.729997,1986.76999 265.27,1989.15 C265.810003,1991.53001 266.08,1994.39998 266.08,1997.76 C266.08,2001.12002 265.810003,2003.98999 265.27,2006.37 C264.729997,2008.75001 264.020004,2010.74999 263.14,2012.37 C262.259996,2013.99001 261.270006,2015.29 260.17,2016.27 C259.069995,2017.25 257.950006,2017.99 256.81,2018.49 C255.669994,2018.99 254.570005,2019.32 253.51,2019.48 C252.449995,2019.64 251.520004,2019.72 250.72,2019.72 C249.919996,2019.72 248.990005,2019.64 247.93,2019.48 C246.869995,2019.32 245.770006,2018.99 244.63,2018.49 C243.489994,2017.99 242.370006,2017.25 241.27,2016.27 C240.169995,2015.29 239.180004,2013.99001 238.3,2012.37 C237.419996,2010.74999 236.710003,2008.75001 236.17,2006.37 C235.629997,2003.98999 235.36,2001.12002 235.36,1997.76 Z M242.56,1997.76 C242.56,1999.08001 242.649999,2000.60999 242.83,2002.35 C243.010001,2004.09001 243.379997,2005.73999 243.94,2007.3 C244.500003,2008.86001 245.319995,2010.17999 246.4,2011.26 C247.480005,2012.34001 248.919991,2012.88 250.72,2012.88 C252.520009,2012.88 253.959995,2012.34001 255.04,2011.26 C256.120005,2010.17999 256.939997,2008.86001 257.5,2007.3 C258.060003,2005.73999 258.429999,2004.09001 258.61,2002.35 C258.790001,2000.60999 258.88,1999.08001 258.88,1997.76 C258.88,1996.43999 258.790001,1994.91001 258.61,1993.17 C258.429999,1991.42999 258.060003,1989.78001 257.5,1988.22 C256.939997,1986.65999 256.120005,1985.34001 255.04,1984.26 C253.959995,1983.17999 252.520009,1982.64 250.72,1982.64 C248.919991,1982.64 247.480005,1983.17999 246.4,1984.26 C245.319995,1985.34001 244.500003,1986.65999 243.94,1988.22 C243.379997,1989.78001 243.010001,1991.42999 242.83,1993.17 C242.649999,1994.91001 242.56,1996.43999 242.56,1997.76 Z M281.8,1993.62 L283.66,1993.62 C284.700005,1993.62 285.709995,1993.56 286.69,1993.44 C287.670005,1993.32 288.549996,1993.06 289.33,1992.66 C290.110004,1992.26 290.739998,1991.68 291.22,1990.92 C291.700002,1990.16 291.94,1989.14001 291.94,1987.86 C291.94,1986.21999 291.380006,1984.88001 290.26,1983.84 C289.139994,1982.79999 287.680009,1982.28 285.88,1982.28 C284.439993,1982.28 283.150006,1982.69 282.01,1983.51 C280.869994,1984.33 280.040003,1985.47999 279.52,1986.96 L271.9,1984.92 C272.380002,1983.35999 273.059996,1982.00001 273.94,1980.84 C274.820004,1979.67999 275.859994,1978.73 277.06,1977.99 C278.260006,1977.25 279.579993,1976.7 281.02,1976.34 C282.460007,1975.98 283.959992,1975.8 285.52,1975.8 C287.360009,1975.8 289.099992,1976.04 290.74,1976.52 C292.380008,1977 293.819994,1977.71 295.06,1978.65 C296.300006,1979.59 297.289996,1980.76999 298.03,1982.19 C298.770004,1983.61001 299.14,1985.25999 299.14,1987.14 C299.14,1989.42001 298.500006,1991.44999 297.22,1993.23 C295.939994,1995.01001 294.160011,1996.18 291.88,1996.74 L291.88,1996.86 C294.600014,1997.26 296.659993,1998.41999 298.06,2000.34 C299.460007,2002.26001 300.16,2004.53999 300.16,2007.18 C300.16,2009.22001 299.770004,2011.01999 298.99,2012.58 C298.209996,2014.14001 297.160007,2015.44999 295.84,2016.51 C294.519993,2017.57001 292.990009,2018.37 291.25,2018.91 C289.509991,2019.45 287.700009,2019.72 285.82,2019.72 C284.059991,2019.72 282.400008,2019.53 280.84,2019.15 C279.279992,2018.77 277.870006,2018.18 276.61,2017.38 C275.349994,2016.58 274.260005,2015.55001 273.34,2014.29 C272.419995,2013.02999 271.720002,2011.52001 271.24,2009.76 L278.92,2007.72 C279.360002,2009.48001 280.139994,2010.84 281.26,2011.8 C282.380006,2012.76 283.89999,2013.24 285.82,2013.24 C286.780005,2013.24 287.689996,2013.08 288.55,2012.76 C289.410004,2012.44 290.169997,2011.99 290.83,2011.41 C291.490003,2010.83 292.009998,2010.13 292.39,2009.31 C292.770002,2008.49 292.96,2007.58001 292.96,2006.58 C292.96,2005.21999 292.670003,2004.11 292.09,2003.25 C291.509997,2002.39 290.770005,2001.73 289.87,2001.27 C288.969995,2000.81 287.960006,2000.5 286.84,2000.34 C285.719994,2000.18 284.620005,2000.1 283.54,2000.1 L281.8,2000.1 L281.8,1993.62 Z" id="03"></path>
        </g>
    </g>
</svg>