<?xml version="1.0" encoding="UTF-8"?>
<svg width="174px" height="118px" viewBox="0 0 174 118" version="1.1" xmlns="http://www.w3.org/2000/svg" xmlns:xlink="http://www.w3.org/1999/xlink">
    <!-- Generator: Sketch 50.2 (55047) - http://www.bohemiancoding.com/sketch -->
    <title>03</title>
    <desc>Created with Sketch.</desc>
    <defs></defs>
    <g id="Page-1" stroke="none" stroke-width="1" fill="none" fill-rule="evenodd">
        <g id="WEB-TOP-VER2" transform="translate(-100.000000, -2696.000000)" fill="#EA6428">
            <path d="M100.96,2755.36 C100.96,2746.39996 101.679993,2738.7467 103.12,2732.4 C104.560007,2726.0533 106.453322,2720.72002 108.8,2716.4 C111.146678,2712.07998 113.786652,2708.61335 116.72,2706 C119.653348,2703.38665 122.639985,2701.41334 125.68,2700.08 C128.720015,2698.74666 131.653319,2697.86667 134.48,2697.44 C137.306681,2697.01333 139.786656,2696.8 141.92,2696.8 C144.053344,2696.8 146.533319,2697.01333 149.36,2697.44 C152.186681,2697.86667 155.119985,2698.74666 158.16,2700.08 C161.200015,2701.41334 164.186652,2703.38665 167.12,2706 C170.053348,2708.61335 172.693322,2712.07998 175.04,2716.4 C177.386678,2720.72002 179.279993,2726.0533 180.72,2732.4 C182.160007,2738.7467 182.88,2746.39996 182.88,2755.36 C182.88,2764.32004 182.160007,2771.9733 180.72,2778.32 C179.279993,2784.6667 177.386678,2789.99998 175.04,2794.32 C172.693322,2798.64002 170.053348,2802.10665 167.12,2804.72 C164.186652,2807.33335 161.200015,2809.30666 158.16,2810.64 C155.119985,2811.97334 152.186681,2812.85333 149.36,2813.28 C146.533319,2813.70667 144.053344,2813.92 141.92,2813.92 C139.786656,2813.92 137.306681,2813.70667 134.48,2813.28 C131.653319,2812.85333 128.720015,2811.97334 125.68,2810.64 C122.639985,2809.30666 119.653348,2807.33335 116.72,2804.72 C113.786652,2802.10665 111.146678,2798.64002 108.8,2794.32 C106.453322,2789.99998 104.560007,2784.6667 103.12,2778.32 C101.679993,2771.9733 100.96,2764.32004 100.96,2755.36 Z M120.16,2755.36 C120.16,2758.88002 120.399998,2762.95998 120.88,2767.6 C121.360002,2772.24002 122.346659,2776.63998 123.84,2780.8 C125.333341,2784.96002 127.519986,2788.47999 130.4,2791.36 C133.280014,2794.24001 137.119976,2795.68 141.92,2795.68 C146.720024,2795.68 150.559986,2794.24001 153.44,2791.36 C156.320014,2788.47999 158.506659,2784.96002 160,2780.8 C161.493341,2776.63998 162.479998,2772.24002 162.96,2767.6 C163.440002,2762.95998 163.68,2758.88002 163.68,2755.36 C163.68,2751.83998 163.440002,2747.76002 162.96,2743.12 C162.479998,2738.47998 161.493341,2734.08002 160,2729.92 C158.506659,2725.75998 156.320014,2722.24001 153.44,2719.36 C150.559986,2716.47999 146.720024,2715.04 141.92,2715.04 C137.119976,2715.04 133.280014,2716.47999 130.4,2719.36 C127.519986,2722.24001 125.333341,2725.75998 123.84,2729.92 C122.346659,2734.08002 121.360002,2738.47998 120.88,2743.12 C120.399998,2747.76002 120.16,2751.83998 120.16,2755.36 Z M224.8,2744.32 L229.76,2744.32 C232.533347,2744.32 235.226654,2744.16 237.84,2743.84 C240.453346,2743.52 242.79999,2742.82667 244.88,2741.76 C246.96001,2740.69333 248.639994,2739.14668 249.92,2737.12 C251.200006,2735.09332 251.84,2732.37335 251.84,2728.96 C251.84,2724.58664 250.346682,2721.01335 247.36,2718.24 C244.373318,2715.46665 240.480024,2714.08 235.68,2714.08 C231.839981,2714.08 228.400015,2715.17332 225.36,2717.36 C222.319985,2719.54668 220.106674,2722.61331 218.72,2726.56 L198.4,2721.12 C199.680006,2716.95998 201.493322,2713.33335 203.84,2710.24 C206.186678,2707.14665 208.959984,2704.61334 212.16,2702.64 C215.360016,2700.66666 218.879981,2699.2 222.72,2698.24 C226.560019,2697.28 230.559979,2696.8 234.72,2696.8 C239.626691,2696.8 244.266645,2697.43999 248.64,2698.72 C253.013355,2700.00001 256.853317,2701.89332 260.16,2704.4 C263.466683,2706.90668 266.106657,2710.05331 268.08,2713.84 C270.053343,2717.62669 271.04,2722.02664 271.04,2727.04 C271.04,2733.12003 269.33335,2738.53331 265.92,2743.28 C262.50665,2748.02669 257.76003,2751.14666 251.68,2752.64 L251.68,2752.96 C258.93337,2754.02667 264.426648,2757.11997 268.16,2762.24 C271.893352,2767.36003 273.76,2773.43996 273.76,2780.48 C273.76,2785.92003 272.72001,2790.71998 270.64,2794.88 C268.55999,2799.04002 265.760018,2802.53332 262.24,2805.36 C258.719982,2808.18668 254.640023,2810.31999 250,2811.76 C245.359977,2813.20001 240.533358,2813.92 235.52,2813.92 C230.826643,2813.92 226.400021,2813.41334 222.24,2812.4 C218.079979,2811.38666 214.320017,2809.81334 210.96,2807.68 C207.599983,2805.54666 204.693346,2802.80002 202.24,2799.44 C199.786654,2796.07998 197.920006,2792.05336 196.64,2787.36 L217.12,2781.92 C218.293339,2786.61336 220.373318,2790.23999 223.36,2792.8 C226.346682,2795.36001 230.399974,2796.64 235.52,2796.64 C238.080013,2796.64 240.506655,2796.21334 242.8,2795.36 C245.093345,2794.50666 247.119991,2793.30667 248.88,2791.76 C250.640009,2790.21333 252.026662,2788.34668 253.04,2786.16 C254.053338,2783.97332 254.56,2781.54668 254.56,2778.88 C254.56,2775.25332 253.786674,2772.29334 252.24,2770 C250.693326,2767.70666 248.720012,2765.94667 246.32,2764.72 C243.919988,2763.49333 241.226682,2762.66667 238.24,2762.24 C235.253318,2761.81333 232.320014,2761.6 229.44,2761.6 L224.8,2761.6 L224.8,2744.32 Z" id="03"></path>
        </g>
    </g>
</svg>