<?xml version="1.0" encoding="UTF-8"?>
<svg width="794px" height="521px" viewBox="0 0 794 521" version="1.1" xmlns="http://www.w3.org/2000/svg" xmlns:xlink="http://www.w3.org/1999/xlink">
    <!-- Generator: Sketch 50.2 (55047) - http://www.bohemiancoding.com/sketch -->
    <title>Fill 1 Copy 17</title>
    <desc>Created with Sketch.</desc>
    <defs></defs>
    <g id="Page-1" stroke="none" stroke-width="1" fill="none" fill-rule="evenodd">
        <g id="WEB-TOP-VER2" transform="translate(-546.000000, -2688.000000)" fill="#FFFFFF">
            <path d="M546.095318,2979.92002 C545.140554,2939.37441 551.41198,2897.18139 562.499038,2859.63241 C586.358558,2778.82649 637.53682,2726.51709 701.209955,2712.54447 C767.04896,2698.09789 833.785156,2716.40714 899.918199,2716.42003 C954.249994,2716.43107 1008.76411,2712.29046 1062.56472,2701.89429 C1111.64016,2692.41202 1159.28587,2679.09469 1208.40792,2696.37961 C1318.89194,2735.25756 1365.746,2926.52921 1326.06193,3060.05593 C1286.77333,3192.24815 1169.87875,3217.51058 1076.30908,3206.80333 C982.218497,3196.03627 891.629635,3150.34227 796.124387,3164.11333 C752.072932,3170.4646 706.843272,3173.79623 662.851447,3164.86065 C616.109105,3155.36733 581.758141,3122.72101 561.454486,3064.56191 C552.271473,3038.25674 546.385243,3009.07549 546.095318,2979.92002" id="Fill-1-Copy-17" transform="translate(943.000000, 2948.500000) scale(-1, 1) translate(-943.000000, -2948.500000) "></path>
        </g>
    </g>
</svg>